# xmcd
#
# Track frame offsets:
#	225
#	10094
#	24416
#	40450
#	53247
#	66875
#	80486
#	93702
#	107224
#	123466
#	136162
#	148587
#	167089
#	182942
#	200782
#	211265
#	224805
#	235348
#	246639
#	263624
#	275365
#	292092
#	306616
#	321663
#
# Disc length: 4457 seconds
#
# Revision: 2
# Processed by: cddbd v1.5.2PL0 Copyright (c) Steve Scherf et al.
# Submitted via: audiograbber 1.83.01
#
DISCID=8b116618
DTITLE=Various Artist - Porta 6  1975
DYEAR=1999
DGENRE=Folk
TTITLE0=Vylet s panem Goddardem - Krakatit
TTITLE1=Hraj, Joe - Krakatit
TTITLE2=Co si septa reka - Stopa
TTITLE3=Hledame devce na nedeli - Kamaradi z Rokycan
TTITLE4=Odchazim - Rychtari
TTITLE5=Pisen o rodne zemi - Rychtari
TTITLE6=Kroky - Spirala
TTITLE7=Holka cvok - Rohaci
TTITLE8=Cesacu bavlny bal - Verumka
TTITLE9=Neznama pisen - Verumka
TTITLE10=Steblo - Dalibor
TTITLE11=Santiano - Grosaci
TTITLE12=Flasinetar - Ladici
TTITLE13=Priste se ti radsi vyhnu - Marsyas
TTITLE14=Kosilela - Vylety
TTITLE15=Blues na dluh - Holatka
TTITLE16=Svestkovy knedliky - Samotari
TTITLE17=Inzerat na dum - Foucmouk
TTITLE18=Balada ceska - Oratori
TTITLE19=Svet v barvach - Slzy
TTITLE20=Francka a Johnny - Formani
TTITLE21=Zpoved kata Mydlare - Brontosauri
TTITLE22=Johanka z Arku - Brontosauri
TTITLE23=Kamarad - Brontosauri
EXTD=
EXTT0=
EXTT1=
EXTT2=
EXTT3=
EXTT4=
EXTT5=
EXTT6=
EXTT7=
EXTT8=
EXTT9=
EXTT10=
EXTT11=
EXTT12=
EXTT13=
EXTT14=
EXTT15=
EXTT16=
EXTT17=
EXTT18=
EXTT19=
EXTT20=
EXTT21=
EXTT22=
EXTT23=
PLAYORDER=
